<svg width="18" height="18" viewBox="0 0 18 18" fill="none" xmlns="http://www.w3.org/2000/svg">
<path d="M8.99806 10.405L2.23406 17.1694C2.0494 17.3538 1.81728 17.4482 1.53773 17.4527C1.2584 17.4569 1.02206 17.3625 0.828729 17.1694C0.635618 16.976 0.539062 16.7418 0.539062 16.4667C0.539062 16.1916 0.635618 15.9574 0.828729 15.764L7.59306 9.00002L0.828729 2.23602C0.644285 2.05135 0.54984 1.81924 0.545396 1.53968C0.541174 1.26035 0.635618 1.02402 0.828729 0.830682C1.02206 0.637571 1.25628 0.541016 1.5314 0.541016C1.80651 0.541016 2.04073 0.637571 2.23406 0.830682L8.99806 7.59502L15.7621 0.830682C15.9467 0.646238 16.1788 0.551793 16.4584 0.547349C16.7377 0.543127 16.9741 0.637571 17.1674 0.830682C17.3605 1.02402 17.4571 1.25824 17.4571 1.53335C17.4571 1.80846 17.3605 2.04268 17.1674 2.23602L10.4031 9.00002L17.1674 15.764C17.3518 15.9487 17.4463 16.1808 17.4507 16.4604C17.455 16.7397 17.3605 16.976 17.1674 17.1694C16.9741 17.3625 16.7398 17.459 16.4647 17.459C16.1896 17.459 15.9554 17.3625 15.7621 17.1694L8.99806 10.405Z" fill="#222E37"/>
</svg>
