<svg width="24" height="24" viewBox="0 0 24 24" fill="none" xmlns="http://www.w3.org/2000/svg">
<mask id="mask0_122_6964" style="mask-type:alpha" maskUnits="userSpaceOnUse" x="0" y="0" width="24" height="24">
<rect width="24" height="24" fill="#E31E46"/>
</mask>
<g mask="url(#mask0_122_6964)">
<path fill-rule="evenodd" clip-rule="evenodd" d="M8 5.05762C8 4.26197 8.31607 3.49891 8.87868 2.93629C9.44129 2.37368 10.2044 2.05762 11 2.05762H13C13.7956 2.05762 14.5587 2.37368 15.1213 2.93629C15.6839 3.49891 16 4.26197 16 5.05762L18.5 5.05762C18.7761 5.05762 19 5.28147 19 5.55762C19 5.83376 18.7761 6.05762 18.5 6.05762H5.5C5.22386 6.05762 5 5.83376 5 5.55762C5 5.28147 5.22386 5.05762 5.5 5.05762L8 5.05762ZM9.58578 3.6434C9.96086 3.26833 10.4696 3.05762 11 3.05762H13C13.5304 3.05762 14.0391 3.26833 14.4142 3.6434C14.7893 4.01847 15 4.52718 15 5.05762H9C9 4.52718 9.21071 4.01847 9.58578 3.6434Z" fill="#E31E46"/>
<path d="M10.5 10.0576C10.7761 10.0576 11 10.2815 11 10.5576V18.5176C11 18.7938 10.7761 19.0176 10.5 19.0176C10.2239 19.0176 10 18.7938 10 18.5176V10.5576C10 10.2815 10.2239 10.0576 10.5 10.0576Z" fill="#E31E46"/>
<path d="M14 10.5576C14 10.2815 13.7761 10.0576 13.5 10.0576C13.2239 10.0576 13 10.2815 13 10.5576V18.5576C13 18.8338 13.2239 19.0576 13.5 19.0576C13.7761 19.0576 14 18.8338 14 18.5576V10.5576Z" fill="#E31E46"/>
<path fill-rule="evenodd" clip-rule="evenodd" d="M6 7.55762C6 7.28147 6.22386 7.05762 6.5 7.05762H17.5C17.7761 7.05762 18 7.28147 18 7.55762V19.0126C18 19.0233 17.9997 19.034 17.999 19.0448C17.9441 19.8955 17.553 20.6895 16.9119 21.2529C16.2749 21.8128 15.4426 22.0998 14.5955 22.0526H9.40447C8.55737 22.0998 7.72511 21.8128 7.08808 21.2529C6.44703 20.6895 6.05589 19.8955 6.00104 19.0448C6.00035 19.034 6 19.0233 6 19.0126V7.55762ZM16.2518 20.5018C16.6903 20.1164 16.9586 19.5754 17 18.9957V8.05762H7V18.9957C7.0414 19.5754 7.30974 20.1164 7.74824 20.5018C8.19065 20.8906 8.77014 21.0892 9.35979 21.0535C9.36985 21.0529 9.37992 21.0526 9.39 21.0526H14.61C14.6201 21.0526 14.6302 21.0529 14.6402 21.0535C15.2299 21.0892 15.8094 20.8906 16.2518 20.5018Z" fill="#E31E46"/>
</g>
</svg>
